<?xml version="1.0" encoding="UTF-8" standalone="no"?>
<!-- Created with Inkscape (http://www.inkscape.org/) -->

<svg
   width="109.5375mm"
   height="21.001837mm"
   viewBox="0 0 109.5375 21.001837"
   version="1.1"
   id="svg1"
   xml:space="preserve"
   inkscape:export-filename="zemiticket_icon.svg"
   inkscape:export-xdpi="96"
   inkscape:export-ydpi="96"
   inkscape:version="1.4 (e7c3feb1, 2024-10-09)"
   sodipodi:docname="zemiticket_logo_4.svg"
   xmlns:inkscape="http://www.inkscape.org/namespaces/inkscape"
   xmlns:sodipodi="http://sodipodi.sourceforge.net/DTD/sodipodi-0.dtd"
   xmlns="http://www.w3.org/2000/svg"
   xmlns:svg="http://www.w3.org/2000/svg"><sodipodi:namedview
     id="namedview1"
     pagecolor="#ffffff"
     bordercolor="#000000"
     borderopacity="0.25"
     inkscape:showpageshadow="2"
     inkscape:pageopacity="0.0"
     inkscape:pagecheckerboard="0"
     inkscape:deskcolor="#d1d1d1"
     inkscape:document-units="mm"
     inkscape:zoom="1.274514"
     inkscape:cx="205.56855"
     inkscape:cy="90.622775"
     inkscape:window-width="1472"
     inkscape:window-height="804"
     inkscape:window-x="0"
     inkscape:window-y="38"
     inkscape:window-maximized="0"
     inkscape:current-layer="svg1"><inkscape:page
       x="0"
       y="0"
       width="109.5375"
       height="21.001837"
       id="page2"
       margin="0"
       bleed="0" /></sodipodi:namedview><defs
     id="defs1"><clipPath
       clipPathUnits="userSpaceOnUse"
       id="clipPath1"><g
         id="g3"
         transform="translate(9.7340592,80.465891)"><path
           id="path1"
           style="fill:#000000;stroke-width:0.216178"
           inkscape:transform-center-x="-17.859363"
           inkscape:transform-center-y="0.33940713"
           d="m -67.956092,116.92332 v 7.32049 a 4.0180185,8.6481653 41.093711 0 0 -5.176343,8.90397 4.0180185,8.6481653 41.093711 0 0 5.176343,1.66386 v 5.92418 l -34.700978,28.0067 -34.70099,1.4e-4 v -5.93504 a 5.3022584,6.5535259 71.670924 0 0 5.17635,-5.83078 5.3022584,6.5535259 71.670924 0 0 -5.17635,-4.72619 v -7.32049 l 34.70099,-1.4e-4 z m -34.780618,30.03562 a 0.84408617,1.2948256 45 0 0 -1.09288,1.44096 0.84408617,1.2948256 45 0 0 1.09288,0.55892 0.84408617,1.2948256 45 0 0 1.09288,-1.44097 0.84408617,1.2948256 45 0 0 -1.09288,-0.55891 z m 0,3.99975 a 0.84408617,1.2948256 45 0 0 -1.09288,1.44148 0.84408617,1.2948256 45 0 0 1.09288,0.55892 0.84408617,1.2948256 45 0 0 1.09288,-1.44097 0.84408617,1.2948256 45 0 0 -1.09288,-0.55943 z m 0,4.00028 a 0.84408617,1.2948256 45 0 0 -1.09288,1.44096 0.84408617,1.2948256 45 0 0 1.09288,0.55891 0.84408617,1.2948256 45 0 0 1.09288,-1.44096 0.84408617,1.2948256 45 0 0 -1.09288,-0.55891 z m 0,3.99975 a 0.84408617,1.2948256 45 0 0 -1.09288,1.44097 0.84408617,1.2948256 45 0 0 1.09288,0.55943 0.84408617,1.2948256 45 0 0 1.09288,-1.44149 0.84408617,1.2948256 45 0 0 -1.09288,-0.55891 z m 0,4.00027 a 0.84408617,1.2948256 45 0 0 -1.09288,1.44097 0.84408617,1.2948256 45 0 0 1.09288,0.55891 0.84408617,1.2948256 45 0 0 1.09288,-1.44096 0.84408617,1.2948256 45 0 0 -1.09288,-0.55892 z"
           transform="matrix(-0.91495967,0.4035453,0,1,0,0)" /><path
           sodipodi:type="star"
           style="fill:#000000;stroke-width:0.264583"
           id="path2"
           inkscape:flatsided="true"
           sodipodi:sides="3"
           sodipodi:cx="41.164684"
           sodipodi:cy="15.019547"
           sodipodi:r1="36.583572"
           sodipodi:r2="18.291786"
           sodipodi:arg1="-1.0471976"
           sodipodi:arg2="0"
           inkscape:rounded="0"
           inkscape:randomized="0"
           d="m 59.456469,-16.662756 3e-6,63.364606 L 4.5811119,15.019549 Z"
           inkscape:transform-center-x="7.7500084"
           transform="matrix(0.84737485,0,0,0.64721331,42.320552,70.051025)" /><path
           id="path3"
           style="fill:#000000;stroke-width:0.264583"
           inkscape:transform-center-x="-7.7499978"
           d="M 59.456469,-16.662757 V 46.701849 L 19.356953,23.550134 v 46.570111 a 3.8070517,4.9844461 0 0 1 2.246046,4.54475 3.8070517,4.9844461 0 0 1 -3.80724,4.983894 3.8070517,4.9844461 0 0 1 -3.80663,-4.983894 3.8070517,4.9844461 0 0 1 2.245436,-4.54475 V 21.748043 L 4.5811043,15.019546 Z"
           transform="matrix(-0.84737485,0,0,0.64721331,145.10275,70.051025)" /></g></clipPath></defs><text
     xml:space="preserve"
     style="font-style:normal;font-variant:normal;font-weight:normal;font-stretch:normal;font-size:14.1111px;font-family:Galvji;-inkscape-font-specification:Galvji;text-align:start;writing-mode:lr-tb;direction:ltr;text-anchor:start;fill:#00b393;fill-opacity:1;stroke-width:0.264583"
     x="28.612968"
     y="15.390045"
     id="text12-9"><tspan
       sodipodi:role="line"
       id="tspan12-4"
       style="font-style:normal;font-variant:normal;font-weight:normal;font-stretch:normal;font-size:14.1111px;font-family:Galvji;-inkscape-font-specification:Galvji;fill:#00b393;fill-opacity:1;stroke-width:0.264583"
       x="28.612968"
       y="15.390045"><tspan
         style="font-style:normal;font-variant:normal;font-weight:bold;font-stretch:normal;font-family:Galvji;-inkscape-font-specification:'Galvji Bold';fill:#000000;fill-opacity:1"
         id="tspan3">Zemi</tspan><tspan
         style="font-style:normal;font-variant:normal;font-weight:bold;font-stretch:normal;font-family:Galvji;-inkscape-font-specification:'Galvji Bold';fill:#00b393;fill-opacity:1"
         id="tspan2">Ticket</tspan></tspan></text><path
     id="rect46-5"
     style="fill:#00b393;fill-opacity:1;stroke-width:0.1652"
     d="m 49.10743,139.11639 h 108.40116 v 68.55139 H 49.10743 Z"
     clip-path="url(#clipPath1)"
     transform="matrix(0.25915469,0,0,0.25915469,-13.579014,-34.34425)" /></svg>
